<mxfile host="app.diagrams.net" modified="2024-01-10T19:00:32.531Z" agent="Mozilla/5.0 (Windows NT 10.0; Win64; x64) AppleWebKit/537.36 (KHTML, like Gecko) Chrome/118.0.0.0 YaBrowser/23.11.0.0 Safari/537.36" version="22.1.18" etag="zRMJyG9vpdbpG5NgeF_s" type="github">
  <diagram name="Страница — 1" id="cEYGtDIfP-DFKxEbMZcf">
    <mxGraphModel>
      <root>
        <mxCell id="0" />
        <mxCell id="1" parent="0" />
      </root>
    </mxGraphModel>
  </diagram>
</mxfile>
